<svg width="19" height="17" viewBox="0 0 19 17" fill="none" xmlns="http://www.w3.org/2000/svg">
<path d="M4.33333 10.1667L5.54167 7.75C5.6808 7.47388 5.89401 7.24191 6.15744 7.08002C6.42087 6.91814 6.72414 6.83272 7.03333 6.83333H16C16.2546 6.83289 16.5059 6.89078 16.7347 7.00257C16.9635 7.11436 17.1636 7.27707 17.3196 7.47822C17.4757 7.67937 17.5837 7.91361 17.6352 8.16296C17.6866 8.41231 17.6803 8.67014 17.6167 8.91667L16.325 13.9167C16.2325 14.2749 16.0234 14.5922 15.7307 14.8185C15.438 15.0448 15.0783 15.1673 14.7083 15.1667H2.66667C2.22464 15.1667 1.80072 14.9911 1.48816 14.6785C1.17559 14.366 1 13.942 1 13.5V2.66667C1 1.75 1.75 1 2.66667 1H5.94167C6.21618 1.00142 6.48609 1.07063 6.72742 1.20147C6.96875 1.33231 7.17402 1.52073 7.325 1.75L8.00833 2.75C8.15931 2.97927 8.36459 3.16769 8.60592 3.29853C8.84724 3.42937 9.11715 3.49858 9.39167 3.5H14.3333C14.7754 3.5 15.1993 3.67559 15.5118 3.98816C15.8244 4.30072 16 4.72464 16 5.16667V6.83333" stroke="white" stroke-width="2" stroke-linecap="round" stroke-linejoin="round"/>
</svg>
